<?xml version="1.0" encoding="UTF-8" standalone="no"?>
<!DOCTYPE svg PUBLIC "-//W3C//DTD SVG 1.1//EN"
 "http://www.w3.org/Graphics/SVG/1.1/DTD/svg11.dtd">
<!-- Generated by graphviz version 2.47.0 (20210316.0004)
 -->
<!-- Title: dependencies Pages: 1 -->
<svg width="820pt" height="211pt"
 viewBox="0.00 0.00 820.00 211.00" xmlns="http://www.w3.org/2000/svg" xmlns:xlink="http://www.w3.org/1999/xlink">
<g id="graph0" class="graph" transform="scale(1 1) rotate(0) translate(4 207)">
<title>dependencies</title>
<polygon fill="white" stroke="transparent" points="-4,4 -4,-207 816,-207 816,4 -4,4"/>
<text text-anchor="start" x="385.01" y="-42.4" font-family="Times-12" font-weight="bold" font-size="14.00">Legend</text>
<polygon fill="#ffffb3" stroke="transparent" points="172,-10 172,-30 192,-30 192,-10 172,-10"/>
<text text-anchor="start" x="195.63" y="-15.4" font-family="Times-12" font-size="14.00"> &#160;Declarations</text>
<polygon fill="#8dd3c7" stroke="transparent" points="285,-10 285,-30 305,-30 305,-10 285,-10"/>
<text text-anchor="start" x="308.73" y="-15.4" font-family="Times-12" font-size="14.00"> &#160;Module</text>
<polygon fill="#80b1d3" stroke="transparent" points="371,-10 371,-30 391,-30 391,-10 371,-10"/>
<text text-anchor="start" x="394.78" y="-15.4" font-family="Times-12" font-size="14.00"> &#160;Bootstrap</text>
<polygon fill="#fdb462" stroke="transparent" points="468,-10 468,-30 488,-30 488,-10 468,-10"/>
<text text-anchor="start" x="491.67" y="-15.4" font-family="Times-12" font-size="14.00"> &#160;Providers</text>
<polygon fill="#fb8072" stroke="transparent" points="564,-10 564,-30 584,-30 584,-10 564,-10"/>
<text text-anchor="start" x="587.73" y="-15.4" font-family="Times-12" font-size="14.00"> &#160;Exports</text>
<g id="clust1" class="cluster">
<title>cluster_ApiModule</title>
<polygon fill="none" stroke="black" stroke-dasharray="1,5" points="8,-70 8,-195 804,-195 804,-70 8,-70"/>
</g>
<g id="clust3" class="cluster">
<title>cluster_ApiModule_imports</title>
<polygon fill="none" stroke="black" points="16,-78 16,-130 796,-130 796,-78 16,-78"/>
</g>
<!-- AuthApiModule -->
<g id="node1" class="node">
<title>AuthApiModule</title>
<polygon fill="#8dd3c7" stroke="black" points="788.05,-122 785.05,-126 764.05,-126 761.05,-122 679.95,-122 679.95,-86 788.05,-86 788.05,-122"/>
<text text-anchor="middle" x="734" y="-99.8" font-family="Times,serif" font-size="14.00">AuthApiModule</text>
</g>
<!-- ApiModule -->
<g id="node7" class="node">
<title>ApiModule</title>
<polygon fill="#8dd3c7" stroke="black" points="418.05,-187 415.05,-191 394.05,-191 391.05,-187 337.95,-187 337.95,-151 418.05,-151 418.05,-187"/>
<text text-anchor="middle" x="378" y="-164.8" font-family="Times,serif" font-size="14.00">ApiModule</text>
</g>
<!-- AuthApiModule&#45;&gt;ApiModule -->
<g id="edge1" class="edge">
<title>AuthApiModule&#45;&gt;ApiModule</title>
<path fill="none" stroke="black" d="M734,-122.28C734,-143.32 734,-175 734,-175 734,-175 428.15,-175 428.15,-175"/>
<polygon fill="black" stroke="black" points="428.15,-171.5 418.15,-175 428.15,-178.5 428.15,-171.5"/>
</g>
<!-- ExampleApiModule -->
<g id="node2" class="node">
<title>ExampleApiModule</title>
<polygon fill="#8dd3c7" stroke="black" points="662.31,-122 659.31,-126 638.31,-126 635.31,-122 531.69,-122 531.69,-86 662.31,-86 662.31,-122"/>
<text text-anchor="middle" x="597" y="-99.8" font-family="Times,serif" font-size="14.00">ExampleApiModule</text>
</g>
<!-- ExampleApiModule&#45;&gt;ApiModule -->
<g id="edge2" class="edge">
<title>ExampleApiModule&#45;&gt;ApiModule</title>
<path fill="none" stroke="black" d="M597,-122.02C597,-139.37 597,-163 597,-163 597,-163 428.17,-163 428.17,-163"/>
<polygon fill="black" stroke="black" points="428.17,-159.5 418.17,-163 428.17,-166.5 428.17,-159.5"/>
</g>
<!-- OnboardingModule -->
<g id="node3" class="node">
<title>OnboardingModule</title>
<polygon fill="#8dd3c7" stroke="black" points="514.42,-122 511.42,-126 490.42,-126 487.42,-122 387.58,-122 387.58,-86 514.42,-86 514.42,-122"/>
<text text-anchor="middle" x="451" y="-99.8" font-family="Times,serif" font-size="14.00">OnboardingModule</text>
</g>
<!-- OnboardingModule&#45;&gt;ApiModule -->
<g id="edge3" class="edge">
<title>OnboardingModule&#45;&gt;ApiModule</title>
<path fill="none" stroke="black" d="M403.03,-122.11C403.03,-122.11 403.03,-140.99 403.03,-140.99"/>
<polygon fill="black" stroke="black" points="399.53,-140.99 403.03,-150.99 406.53,-140.99 399.53,-140.99"/>
</g>
<!-- PermissionsModule -->
<g id="node4" class="node">
<title>PermissionsModule</title>
<polygon fill="#8dd3c7" stroke="black" points="369.71,-122 366.71,-126 345.71,-126 342.71,-122 242.29,-122 242.29,-86 369.71,-86 369.71,-122"/>
<text text-anchor="middle" x="306" y="-99.8" font-family="Times,serif" font-size="14.00">PermissionsModule</text>
</g>
<!-- PermissionsModule&#45;&gt;ApiModule -->
<g id="edge4" class="edge">
<title>PermissionsModule&#45;&gt;ApiModule</title>
<path fill="none" stroke="black" d="M353.67,-122.11C353.67,-122.11 353.67,-140.99 353.67,-140.99"/>
<polygon fill="black" stroke="black" points="350.17,-140.99 353.67,-150.99 357.17,-140.99 350.17,-140.99"/>
</g>
<!-- RolesModule -->
<g id="node5" class="node">
<title>RolesModule</title>
<polygon fill="#8dd3c7" stroke="black" points="224.94,-122 221.94,-126 200.94,-126 197.94,-122 133.06,-122 133.06,-86 224.94,-86 224.94,-122"/>
<text text-anchor="middle" x="179" y="-99.8" font-family="Times,serif" font-size="14.00">RolesModule</text>
</g>
<!-- RolesModule&#45;&gt;ApiModule -->
<g id="edge5" class="edge">
<title>RolesModule&#45;&gt;ApiModule</title>
<path fill="none" stroke="black" d="M179,-122.02C179,-139.37 179,-163 179,-163 179,-163 327.73,-163 327.73,-163"/>
<polygon fill="black" stroke="black" points="327.73,-166.5 337.73,-163 327.73,-159.5 327.73,-166.5"/>
</g>
<!-- UsersModule -->
<g id="node6" class="node">
<title>UsersModule</title>
<polygon fill="#8dd3c7" stroke="black" points="115.92,-122 112.92,-126 91.92,-126 88.92,-122 24.08,-122 24.08,-86 115.92,-86 115.92,-122"/>
<text text-anchor="middle" x="70" y="-99.8" font-family="Times,serif" font-size="14.00">UsersModule</text>
</g>
<!-- UsersModule&#45;&gt;ApiModule -->
<g id="edge6" class="edge">
<title>UsersModule&#45;&gt;ApiModule</title>
<path fill="none" stroke="black" d="M70,-122.28C70,-143.32 70,-175 70,-175 70,-175 327.73,-175 327.73,-175"/>
<polygon fill="black" stroke="black" points="327.73,-178.5 337.73,-175 327.73,-171.5 327.73,-178.5"/>
</g>
</g>
</svg>
