<?xml version="1.0" encoding="UTF-8" standalone="no"?>
<!DOCTYPE svg PUBLIC "-//W3C//DTD SVG 1.1//EN"
 "http://www.w3.org/Graphics/SVG/1.1/DTD/svg11.dtd">
<!-- Generated by graphviz version 2.47.0 (20210316.0004)
 -->
<!-- Title: dependencies Pages: 1 -->
<svg width="815pt" height="284pt"
 viewBox="0.00 0.00 815.00 284.00" xmlns="http://www.w3.org/2000/svg" xmlns:xlink="http://www.w3.org/1999/xlink">
<g id="graph0" class="graph" transform="scale(1 1) rotate(0) translate(4 280)">
<title>dependencies</title>
<polygon fill="white" stroke="transparent" points="-4,4 -4,-280 811,-280 811,4 -4,4"/>
<text text-anchor="start" x="382.51" y="-42.4" font-family="Times-12" font-weight="bold" font-size="14.00">Legend</text>
<polygon fill="#ffffb3" stroke="transparent" points="169.5,-10 169.5,-30 189.5,-30 189.5,-10 169.5,-10"/>
<text text-anchor="start" x="193.13" y="-15.4" font-family="Times-12" font-size="14.00"> &#160;Declarations</text>
<polygon fill="#8dd3c7" stroke="transparent" points="282.5,-10 282.5,-30 302.5,-30 302.5,-10 282.5,-10"/>
<text text-anchor="start" x="306.23" y="-15.4" font-family="Times-12" font-size="14.00"> &#160;Module</text>
<polygon fill="#80b1d3" stroke="transparent" points="368.5,-10 368.5,-30 388.5,-30 388.5,-10 368.5,-10"/>
<text text-anchor="start" x="392.28" y="-15.4" font-family="Times-12" font-size="14.00"> &#160;Bootstrap</text>
<polygon fill="#fdb462" stroke="transparent" points="465.5,-10 465.5,-30 485.5,-30 485.5,-10 465.5,-10"/>
<text text-anchor="start" x="489.17" y="-15.4" font-family="Times-12" font-size="14.00"> &#160;Providers</text>
<polygon fill="#fb8072" stroke="transparent" points="561.5,-10 561.5,-30 581.5,-30 581.5,-10 561.5,-10"/>
<text text-anchor="start" x="585.23" y="-15.4" font-family="Times-12" font-size="14.00"> &#160;Exports</text>
<g id="clust1" class="cluster">
<title>cluster_PermissionsModule</title>
<polygon fill="none" stroke="black" stroke-dasharray="1,5" points="8,-70 8,-268 799,-268 799,-70 8,-70"/>
</g>
<g id="clust3" class="cluster">
<title>cluster_PermissionsModule_imports</title>
<polygon fill="none" stroke="black" points="665,-78 665,-130 791,-130 791,-78 665,-78"/>
</g>
<g id="clust4" class="cluster">
<title>cluster_PermissionsModule_exports</title>
<polygon fill="none" stroke="black" points="263,-208 263,-260 623,-260 623,-208 263,-208"/>
</g>
<g id="clust6" class="cluster">
<title>cluster_PermissionsModule_providers</title>
<polygon fill="none" stroke="black" points="16,-78 16,-130 657,-130 657,-78 16,-78"/>
</g>
<!-- DatabaseModule -->
<g id="node1" class="node">
<title>DatabaseModule</title>
<polygon fill="#8dd3c7" stroke="black" points="783.35,-122 780.35,-126 759.35,-126 756.35,-122 672.65,-122 672.65,-86 783.35,-86 783.35,-122"/>
<text text-anchor="middle" x="728" y="-99.8" font-family="Times,serif" font-size="14.00">DatabaseModule</text>
</g>
<!-- PermissionsModule -->
<g id="node2" class="node">
<title>PermissionsModule</title>
<polygon fill="#8dd3c7" stroke="black" points="489.71,-187 486.71,-191 465.71,-191 462.71,-187 362.29,-187 362.29,-151 489.71,-151 489.71,-187"/>
<text text-anchor="middle" x="426" y="-164.8" font-family="Times,serif" font-size="14.00">PermissionsModule</text>
</g>
<!-- DatabaseModule&#45;&gt;PermissionsModule -->
<g id="edge1" class="edge">
<title>DatabaseModule&#45;&gt;PermissionsModule</title>
<path fill="none" stroke="black" d="M728,-122.11C728,-141.34 728,-169 728,-169 728,-169 499.68,-169 499.68,-169"/>
<polygon fill="black" stroke="black" points="499.68,-165.5 489.68,-169 499.68,-172.5 499.68,-165.5"/>
</g>
<!-- PermissionsAssignmentService  -->
<g id="node3" class="node">
<title>PermissionsAssignmentService </title>
<polygon fill="#fb8072" stroke="black" points="615.02,-252 418.98,-252 418.98,-216 615.02,-216 615.02,-252"/>
<text text-anchor="middle" x="517" y="-229.8" font-family="Times,serif" font-size="14.00">PermissionsAssignmentService </text>
</g>
<!-- PermissionsModule&#45;&gt;PermissionsAssignmentService  -->
<g id="edge2" class="edge">
<title>PermissionsModule&#45;&gt;PermissionsAssignmentService </title>
<path fill="none" stroke="black" stroke-dasharray="5,2" d="M454.3,-187.11C454.3,-187.11 454.3,-205.99 454.3,-205.99"/>
<polygon fill="black" stroke="black" points="450.8,-205.99 454.3,-215.99 457.8,-205.99 450.8,-205.99"/>
</g>
<!-- PermissionsService  -->
<g id="node4" class="node">
<title>PermissionsService </title>
<polygon fill="#fb8072" stroke="black" points="400.64,-252 271.36,-252 271.36,-216 400.64,-216 400.64,-252"/>
<text text-anchor="middle" x="336" y="-229.8" font-family="Times,serif" font-size="14.00">PermissionsService </text>
</g>
<!-- PermissionsModule&#45;&gt;PermissionsService  -->
<g id="edge3" class="edge">
<title>PermissionsModule&#45;&gt;PermissionsService </title>
<path fill="none" stroke="black" stroke-dasharray="5,2" d="M381.48,-187.11C381.48,-187.11 381.48,-205.99 381.48,-205.99"/>
<polygon fill="black" stroke="black" points="377.98,-205.99 381.48,-215.99 384.98,-205.99 377.98,-205.99"/>
</g>
<!-- AuditInterceptor -->
<g id="node5" class="node">
<title>AuditInterceptor</title>
<ellipse fill="#fdb462" stroke="black" cx="574" cy="-104" rx="75.28" ry="18"/>
<text text-anchor="middle" x="574" y="-99.8" font-family="Times,serif" font-size="14.00">AuditInterceptor</text>
</g>
<!-- AuditInterceptor&#45;&gt;PermissionsModule -->
<g id="edge4" class="edge">
<title>AuditInterceptor&#45;&gt;PermissionsModule</title>
<path fill="none" stroke="black" d="M498.31,-104C490.41,-104 485.2,-104 485.2,-104 485.2,-104 485.2,-140.89 485.2,-140.89"/>
<polygon fill="black" stroke="black" points="481.7,-140.89 485.2,-150.89 488.7,-140.89 481.7,-140.89"/>
</g>
<!-- PermissionsAssignmentService -->
<g id="node6" class="node">
<title>PermissionsAssignmentService</title>
<ellipse fill="#fdb462" stroke="black" cx="348" cy="-104" rx="132.6" ry="18"/>
<text text-anchor="middle" x="348" y="-99.8" font-family="Times,serif" font-size="14.00">PermissionsAssignmentService</text>
</g>
<!-- PermissionsAssignmentService&#45;&gt;PermissionsModule -->
<g id="edge5" class="edge">
<title>PermissionsAssignmentService&#45;&gt;PermissionsModule</title>
<path fill="none" stroke="black" d="M421.6,-119.08C421.6,-119.08 421.6,-140.76 421.6,-140.76"/>
<polygon fill="black" stroke="black" points="418.1,-140.76 421.6,-150.76 425.1,-140.76 418.1,-140.76"/>
</g>
<!-- PermissionsService -->
<g id="node7" class="node">
<title>PermissionsService</title>
<ellipse fill="#fdb462" stroke="black" cx="111" cy="-104" rx="86.83" ry="18"/>
<text text-anchor="middle" x="111" y="-99.8" font-family="Times,serif" font-size="14.00">PermissionsService</text>
</g>
<!-- PermissionsService&#45;&gt;PermissionsModule -->
<g id="edge6" class="edge">
<title>PermissionsService&#45;&gt;PermissionsModule</title>
<path fill="none" stroke="black" d="M111,-122.11C111,-141.34 111,-169 111,-169 111,-169 352.26,-169 352.26,-169"/>
<polygon fill="black" stroke="black" points="352.26,-172.5 362.26,-169 352.26,-165.5 352.26,-172.5"/>
</g>
</g>
</svg>
