<?xml version="1.0" encoding="UTF-8" standalone="no"?>
<!DOCTYPE svg PUBLIC "-//W3C//DTD SVG 1.1//EN"
 "http://www.w3.org/Graphics/SVG/1.1/DTD/svg11.dtd">
<!-- Generated by graphviz version 2.47.0 (20210316.0004)
 -->
<!-- Title: dependencies Pages: 1 -->
<svg width="987pt" height="284pt"
 viewBox="0.00 0.00 987.00 284.00" xmlns="http://www.w3.org/2000/svg" xmlns:xlink="http://www.w3.org/1999/xlink">
<g id="graph0" class="graph" transform="scale(1 1) rotate(0) translate(4 280)">
<title>dependencies</title>
<polygon fill="white" stroke="transparent" points="-4,4 -4,-280 983,-280 983,4 -4,4"/>
<text text-anchor="start" x="468.51" y="-42.4" font-family="Times-12" font-weight="bold" font-size="14.00">Legend</text>
<polygon fill="#ffffb3" stroke="transparent" points="255.5,-10 255.5,-30 275.5,-30 275.5,-10 255.5,-10"/>
<text text-anchor="start" x="279.13" y="-15.4" font-family="Times-12" font-size="14.00"> &#160;Declarations</text>
<polygon fill="#8dd3c7" stroke="transparent" points="368.5,-10 368.5,-30 388.5,-30 388.5,-10 368.5,-10"/>
<text text-anchor="start" x="392.23" y="-15.4" font-family="Times-12" font-size="14.00"> &#160;Module</text>
<polygon fill="#80b1d3" stroke="transparent" points="454.5,-10 454.5,-30 474.5,-30 474.5,-10 454.5,-10"/>
<text text-anchor="start" x="478.28" y="-15.4" font-family="Times-12" font-size="14.00"> &#160;Bootstrap</text>
<polygon fill="#fdb462" stroke="transparent" points="551.5,-10 551.5,-30 571.5,-30 571.5,-10 551.5,-10"/>
<text text-anchor="start" x="575.17" y="-15.4" font-family="Times-12" font-size="14.00"> &#160;Providers</text>
<polygon fill="#fb8072" stroke="transparent" points="647.5,-10 647.5,-30 667.5,-30 667.5,-10 647.5,-10"/>
<text text-anchor="start" x="671.23" y="-15.4" font-family="Times-12" font-size="14.00"> &#160;Exports</text>
<g id="clust1" class="cluster">
<title>cluster_AuthApiModule</title>
<polygon fill="none" stroke="black" stroke-dasharray="1,5" points="8,-70 8,-268 971,-268 971,-70 8,-70"/>
</g>
<g id="clust4" class="cluster">
<title>cluster_AuthApiModule_exports</title>
<polygon fill="none" stroke="black" points="501,-208 501,-260 627,-260 627,-208 501,-208"/>
</g>
<g id="clust3" class="cluster">
<title>cluster_AuthApiModule_imports</title>
<polygon fill="none" stroke="black" points="510,-78 510,-130 963,-130 963,-78 510,-78"/>
</g>
<g id="clust6" class="cluster">
<title>cluster_AuthApiModule_providers</title>
<polygon fill="none" stroke="black" points="16,-78 16,-130 502,-130 502,-78 16,-78"/>
</g>
<!-- AuthModule -->
<g id="node1" class="node">
<title>AuthModule</title>
<polygon fill="#8dd3c7" stroke="black" points="954.55,-122 951.55,-126 930.55,-126 927.55,-122 867.45,-122 867.45,-86 954.55,-86 954.55,-122"/>
<text text-anchor="middle" x="911" y="-99.8" font-family="Times,serif" font-size="14.00">AuthModule</text>
</g>
<!-- AuthApiModule -->
<g id="node5" class="node">
<title>AuthApiModule</title>
<polygon fill="#8dd3c7" stroke="black" points="618.05,-187 615.05,-191 594.05,-191 591.05,-187 509.95,-187 509.95,-151 618.05,-151 618.05,-187"/>
<text text-anchor="middle" x="564" y="-164.8" font-family="Times,serif" font-size="14.00">AuthApiModule</text>
</g>
<!-- AuthModule&#45;&gt;AuthApiModule -->
<g id="edge1" class="edge">
<title>AuthModule&#45;&gt;AuthApiModule</title>
<path fill="none" stroke="black" d="M911,-122.28C911,-143.32 911,-175 911,-175 911,-175 628.22,-175 628.22,-175"/>
<polygon fill="black" stroke="black" points="628.22,-171.5 618.22,-175 628.22,-178.5 628.22,-171.5"/>
</g>
<!-- DatabaseModule -->
<g id="node2" class="node">
<title>DatabaseModule</title>
<polygon fill="#8dd3c7" stroke="black" points="849.35,-122 846.35,-126 825.35,-126 822.35,-122 738.65,-122 738.65,-86 849.35,-86 849.35,-122"/>
<text text-anchor="middle" x="794" y="-99.8" font-family="Times,serif" font-size="14.00">DatabaseModule</text>
</g>
<!-- DatabaseModule&#45;&gt;AuthApiModule -->
<g id="edge2" class="edge">
<title>DatabaseModule&#45;&gt;AuthApiModule</title>
<path fill="none" stroke="black" d="M794,-122.02C794,-139.37 794,-163 794,-163 794,-163 628.22,-163 628.22,-163"/>
<polygon fill="black" stroke="black" points="628.22,-159.5 618.22,-163 628.22,-166.5 628.22,-159.5"/>
</g>
<!-- EmailModule -->
<g id="node3" class="node">
<title>EmailModule</title>
<polygon fill="#8dd3c7" stroke="black" points="720.49,-122 717.49,-126 696.49,-126 693.49,-122 627.51,-122 627.51,-86 720.49,-86 720.49,-122"/>
<text text-anchor="middle" x="674" y="-99.8" font-family="Times,serif" font-size="14.00">EmailModule</text>
</g>
<!-- EmailModule&#45;&gt;AuthApiModule -->
<g id="edge3" class="edge">
<title>EmailModule&#45;&gt;AuthApiModule</title>
<path fill="none" stroke="black" d="M627.31,-104C619.56,-104 613.99,-104 613.99,-104 613.99,-104 613.99,-140.89 613.99,-140.89"/>
<polygon fill="black" stroke="black" points="610.49,-140.89 613.99,-150.89 617.49,-140.89 610.49,-140.89"/>
</g>
<!-- UsersModule -->
<g id="node4" class="node">
<title>UsersModule</title>
<polygon fill="#8dd3c7" stroke="black" points="609.92,-122 606.92,-126 585.92,-126 582.92,-122 518.08,-122 518.08,-86 609.92,-86 609.92,-122"/>
<text text-anchor="middle" x="564" y="-99.8" font-family="Times,serif" font-size="14.00">UsersModule</text>
</g>
<!-- UsersModule&#45;&gt;AuthApiModule -->
<g id="edge4" class="edge">
<title>UsersModule&#45;&gt;AuthApiModule</title>
<path fill="none" stroke="black" d="M564,-122.11C564,-122.11 564,-140.99 564,-140.99"/>
<polygon fill="black" stroke="black" points="560.5,-140.99 564,-150.99 567.5,-140.99 560.5,-140.99"/>
</g>
<!-- AuthApiService  -->
<g id="node6" class="node">
<title>AuthApiService </title>
<polygon fill="#fb8072" stroke="black" points="619.47,-252 508.53,-252 508.53,-216 619.47,-216 619.47,-252"/>
<text text-anchor="middle" x="564" y="-229.8" font-family="Times,serif" font-size="14.00">AuthApiService </text>
</g>
<!-- AuthApiModule&#45;&gt;AuthApiService  -->
<g id="edge5" class="edge">
<title>AuthApiModule&#45;&gt;AuthApiService </title>
<path fill="none" stroke="black" stroke-dasharray="5,2" d="M564,-187.11C564,-187.11 564,-205.99 564,-205.99"/>
<polygon fill="black" stroke="black" points="560.5,-205.99 564,-215.99 567.5,-205.99 560.5,-205.99"/>
</g>
<!-- AuthApiService -->
<g id="node7" class="node">
<title>AuthApiService</title>
<ellipse fill="#fdb462" stroke="black" cx="420" cy="-104" rx="73.58" ry="18"/>
<text text-anchor="middle" x="420" y="-99.8" font-family="Times,serif" font-size="14.00">AuthApiService</text>
</g>
<!-- AuthApiService&#45;&gt;AuthApiModule -->
<g id="edge6" class="edge">
<title>AuthApiService&#45;&gt;AuthApiModule</title>
<path fill="none" stroke="black" d="M494.07,-104C505.72,-104 514.01,-104 514.01,-104 514.01,-104 514.01,-140.89 514.01,-140.89"/>
<polygon fill="black" stroke="black" points="510.51,-140.89 514.01,-150.89 517.51,-140.89 510.51,-140.89"/>
</g>
<!-- JwtRefreshStrategy -->
<g id="node8" class="node">
<title>JwtRefreshStrategy</title>
<ellipse fill="#fdb462" stroke="black" cx="242" cy="-104" rx="86.81" ry="18"/>
<text text-anchor="middle" x="242" y="-99.8" font-family="Times,serif" font-size="14.00">JwtRefreshStrategy</text>
</g>
<!-- JwtRefreshStrategy&#45;&gt;AuthApiModule -->
<g id="edge7" class="edge">
<title>JwtRefreshStrategy&#45;&gt;AuthApiModule</title>
<path fill="none" stroke="black" d="M242,-122.02C242,-139.37 242,-163 242,-163 242,-163 499.74,-163 499.74,-163"/>
<polygon fill="black" stroke="black" points="499.74,-166.5 509.74,-163 499.74,-159.5 499.74,-166.5"/>
</g>
<!-- JwtStrategy -->
<g id="node9" class="node">
<title>JwtStrategy</title>
<ellipse fill="#fdb462" stroke="black" cx="81" cy="-104" rx="56.76" ry="18"/>
<text text-anchor="middle" x="81" y="-99.8" font-family="Times,serif" font-size="14.00">JwtStrategy</text>
</g>
<!-- JwtStrategy&#45;&gt;AuthApiModule -->
<g id="edge8" class="edge">
<title>JwtStrategy&#45;&gt;AuthApiModule</title>
<path fill="none" stroke="black" d="M81,-122.28C81,-143.32 81,-175 81,-175 81,-175 499.53,-175 499.53,-175"/>
<polygon fill="black" stroke="black" points="499.53,-178.5 509.53,-175 499.53,-171.5 499.53,-178.5"/>
</g>
</g>
</svg>
