<?xml version="1.0" encoding="UTF-8" standalone="no"?>
<!DOCTYPE svg PUBLIC "-//W3C//DTD SVG 1.1//EN"
 "http://www.w3.org/Graphics/SVG/1.1/DTD/svg11.dtd">
<!-- Generated by graphviz version 2.47.0 (20210316.0004)
 -->
<!-- Title: dependencies Pages: 1 -->
<svg width="599pt" height="284pt"
 viewBox="0.00 0.00 599.00 284.00" xmlns="http://www.w3.org/2000/svg" xmlns:xlink="http://www.w3.org/1999/xlink">
<g id="graph0" class="graph" transform="scale(1 1) rotate(0) translate(4 280)">
<title>dependencies</title>
<polygon fill="white" stroke="transparent" points="-4,4 -4,-280 595,-280 595,4 -4,4"/>
<text text-anchor="start" x="274.51" y="-42.4" font-family="Times-12" font-weight="bold" font-size="14.00">Legend</text>
<polygon fill="#ffffb3" stroke="transparent" points="61.5,-10 61.5,-30 81.5,-30 81.5,-10 61.5,-10"/>
<text text-anchor="start" x="85.13" y="-15.4" font-family="Times-12" font-size="14.00"> &#160;Declarations</text>
<polygon fill="#8dd3c7" stroke="transparent" points="174.5,-10 174.5,-30 194.5,-30 194.5,-10 174.5,-10"/>
<text text-anchor="start" x="198.23" y="-15.4" font-family="Times-12" font-size="14.00"> &#160;Module</text>
<polygon fill="#80b1d3" stroke="transparent" points="260.5,-10 260.5,-30 280.5,-30 280.5,-10 260.5,-10"/>
<text text-anchor="start" x="284.28" y="-15.4" font-family="Times-12" font-size="14.00"> &#160;Bootstrap</text>
<polygon fill="#fdb462" stroke="transparent" points="357.5,-10 357.5,-30 377.5,-30 377.5,-10 357.5,-10"/>
<text text-anchor="start" x="381.17" y="-15.4" font-family="Times-12" font-size="14.00"> &#160;Providers</text>
<polygon fill="#fb8072" stroke="transparent" points="453.5,-10 453.5,-30 473.5,-30 473.5,-10 453.5,-10"/>
<text text-anchor="start" x="477.23" y="-15.4" font-family="Times-12" font-size="14.00"> &#160;Exports</text>
<g id="clust1" class="cluster">
<title>cluster_EmailApiModule</title>
<polygon fill="none" stroke="black" stroke-dasharray="1,5" points="8,-70 8,-268 583,-268 583,-70 8,-70"/>
</g>
<g id="clust3" class="cluster">
<title>cluster_EmailApiModule_imports</title>
<polygon fill="none" stroke="black" points="338,-78 338,-130 575,-130 575,-78 338,-78"/>
</g>
<g id="clust4" class="cluster">
<title>cluster_EmailApiModule_exports</title>
<polygon fill="none" stroke="black" points="252,-208 252,-260 384,-260 384,-208 252,-208"/>
</g>
<g id="clust6" class="cluster">
<title>cluster_EmailApiModule_providers</title>
<polygon fill="none" stroke="black" points="16,-78 16,-130 330,-130 330,-78 16,-78"/>
</g>
<!-- DatabaseModule -->
<g id="node1" class="node">
<title>DatabaseModule</title>
<polygon fill="#8dd3c7" stroke="black" points="567.35,-122 564.35,-126 543.35,-126 540.35,-122 456.65,-122 456.65,-86 567.35,-86 567.35,-122"/>
<text text-anchor="middle" x="512" y="-99.8" font-family="Times,serif" font-size="14.00">DatabaseModule</text>
</g>
<!-- EmailApiModule -->
<g id="node3" class="node">
<title>EmailApiModule</title>
<polygon fill="#8dd3c7" stroke="black" points="374.99,-187 371.99,-191 350.99,-191 347.99,-187 261.01,-187 261.01,-151 374.99,-151 374.99,-187"/>
<text text-anchor="middle" x="318" y="-164.8" font-family="Times,serif" font-size="14.00">EmailApiModule</text>
</g>
<!-- DatabaseModule&#45;&gt;EmailApiModule -->
<g id="edge1" class="edge">
<title>DatabaseModule&#45;&gt;EmailApiModule</title>
<path fill="none" stroke="black" d="M512,-122.11C512,-141.34 512,-169 512,-169 512,-169 385.16,-169 385.16,-169"/>
<polygon fill="black" stroke="black" points="385.16,-165.5 375.16,-169 385.16,-172.5 385.16,-165.5"/>
</g>
<!-- EmailModule -->
<g id="node2" class="node">
<title>EmailModule</title>
<polygon fill="#8dd3c7" stroke="black" points="438.49,-122 435.49,-126 414.49,-126 411.49,-122 345.51,-122 345.51,-86 438.49,-86 438.49,-122"/>
<text text-anchor="middle" x="392" y="-99.8" font-family="Times,serif" font-size="14.00">EmailModule</text>
</g>
<!-- EmailModule&#45;&gt;EmailApiModule -->
<g id="edge2" class="edge">
<title>EmailModule&#45;&gt;EmailApiModule</title>
<path fill="none" stroke="black" d="M360.25,-122.11C360.25,-122.11 360.25,-140.99 360.25,-140.99"/>
<polygon fill="black" stroke="black" points="356.75,-140.99 360.25,-150.99 363.75,-140.99 356.75,-140.99"/>
</g>
<!-- EmailApiService  -->
<g id="node4" class="node">
<title>EmailApiService </title>
<polygon fill="#fb8072" stroke="black" points="375.91,-252 260.09,-252 260.09,-216 375.91,-216 375.91,-252"/>
<text text-anchor="middle" x="318" y="-229.8" font-family="Times,serif" font-size="14.00">EmailApiService </text>
</g>
<!-- EmailApiModule&#45;&gt;EmailApiService  -->
<g id="edge3" class="edge">
<title>EmailApiModule&#45;&gt;EmailApiService </title>
<path fill="none" stroke="black" stroke-dasharray="5,2" d="M318,-187.11C318,-187.11 318,-205.99 318,-205.99"/>
<polygon fill="black" stroke="black" points="314.5,-205.99 318,-215.99 321.5,-205.99 314.5,-205.99"/>
</g>
<!-- EmailApiService -->
<g id="node5" class="node">
<title>EmailApiService</title>
<ellipse fill="#fdb462" stroke="black" cx="244" cy="-104" rx="77.58" ry="18"/>
<text text-anchor="middle" x="244" y="-99.8" font-family="Times,serif" font-size="14.00">EmailApiService</text>
</g>
<!-- EmailApiService&#45;&gt;EmailApiModule -->
<g id="edge4" class="edge">
<title>EmailApiService&#45;&gt;EmailApiModule</title>
<path fill="none" stroke="black" d="M291.27,-118.43C291.27,-118.43 291.27,-140.89 291.27,-140.89"/>
<polygon fill="black" stroke="black" points="287.77,-140.89 291.27,-150.89 294.77,-140.89 287.77,-140.89"/>
</g>
<!-- UsersService -->
<g id="node6" class="node">
<title>UsersService</title>
<ellipse fill="#fdb462" stroke="black" cx="86" cy="-104" rx="61.95" ry="18"/>
<text text-anchor="middle" x="86" y="-99.8" font-family="Times,serif" font-size="14.00">UsersService</text>
</g>
<!-- UsersService&#45;&gt;EmailApiModule -->
<g id="edge5" class="edge">
<title>UsersService&#45;&gt;EmailApiModule</title>
<path fill="none" stroke="black" d="M86,-122.11C86,-141.34 86,-169 86,-169 86,-169 250.95,-169 250.95,-169"/>
<polygon fill="black" stroke="black" points="250.95,-172.5 260.95,-169 250.95,-165.5 250.95,-172.5"/>
</g>
</g>
</svg>
