<?xml version="1.0" encoding="UTF-8" standalone="no"?>
<!DOCTYPE svg PUBLIC "-//W3C//DTD SVG 1.1//EN"
 "http://www.w3.org/Graphics/SVG/1.1/DTD/svg11.dtd">
<!-- Generated by graphviz version 2.47.0 (20210316.0004)
 -->
<!-- Title: dependencies Pages: 1 -->
<svg width="593pt" height="284pt"
 viewBox="0.00 0.00 593.00 284.00" xmlns="http://www.w3.org/2000/svg" xmlns:xlink="http://www.w3.org/1999/xlink">
<g id="graph0" class="graph" transform="scale(1 1) rotate(0) translate(4 280)">
<title>dependencies</title>
<polygon fill="white" stroke="transparent" points="-4,4 -4,-280 589,-280 589,4 -4,4"/>
<text text-anchor="start" x="271.51" y="-42.4" font-family="Times-12" font-weight="bold" font-size="14.00">Legend</text>
<polygon fill="#ffffb3" stroke="transparent" points="58.5,-10 58.5,-30 78.5,-30 78.5,-10 58.5,-10"/>
<text text-anchor="start" x="82.13" y="-15.4" font-family="Times-12" font-size="14.00"> &#160;Declarations</text>
<polygon fill="#8dd3c7" stroke="transparent" points="171.5,-10 171.5,-30 191.5,-30 191.5,-10 171.5,-10"/>
<text text-anchor="start" x="195.23" y="-15.4" font-family="Times-12" font-size="14.00"> &#160;Module</text>
<polygon fill="#80b1d3" stroke="transparent" points="257.5,-10 257.5,-30 277.5,-30 277.5,-10 257.5,-10"/>
<text text-anchor="start" x="281.28" y="-15.4" font-family="Times-12" font-size="14.00"> &#160;Bootstrap</text>
<polygon fill="#fdb462" stroke="transparent" points="354.5,-10 354.5,-30 374.5,-30 374.5,-10 354.5,-10"/>
<text text-anchor="start" x="378.17" y="-15.4" font-family="Times-12" font-size="14.00"> &#160;Providers</text>
<polygon fill="#fb8072" stroke="transparent" points="450.5,-10 450.5,-30 470.5,-30 470.5,-10 450.5,-10"/>
<text text-anchor="start" x="474.23" y="-15.4" font-family="Times-12" font-size="14.00"> &#160;Exports</text>
<g id="clust1" class="cluster">
<title>cluster_UsersModule</title>
<polygon fill="none" stroke="black" stroke-dasharray="1,5" points="8,-70 8,-268 577,-268 577,-70 8,-70"/>
</g>
<g id="clust3" class="cluster">
<title>cluster_UsersModule_imports</title>
<polygon fill="none" stroke="black" points="332,-78 332,-130 569,-130 569,-78 332,-78"/>
</g>
<g id="clust4" class="cluster">
<title>cluster_UsersModule_exports</title>
<polygon fill="none" stroke="black" points="258,-208 258,-260 368,-260 368,-208 258,-208"/>
</g>
<g id="clust6" class="cluster">
<title>cluster_UsersModule_providers</title>
<polygon fill="none" stroke="black" points="16,-78 16,-130 324,-130 324,-78 16,-78"/>
</g>
<!-- DatabaseModule -->
<g id="node1" class="node">
<title>DatabaseModule</title>
<polygon fill="#8dd3c7" stroke="black" points="561.35,-122 558.35,-126 537.35,-126 534.35,-122 450.65,-122 450.65,-86 561.35,-86 561.35,-122"/>
<text text-anchor="middle" x="506" y="-99.8" font-family="Times,serif" font-size="14.00">DatabaseModule</text>
</g>
<!-- UsersModule -->
<g id="node3" class="node">
<title>UsersModule</title>
<polygon fill="#8dd3c7" stroke="black" points="358.92,-187 355.92,-191 334.92,-191 331.92,-187 267.08,-187 267.08,-151 358.92,-151 358.92,-187"/>
<text text-anchor="middle" x="313" y="-164.8" font-family="Times,serif" font-size="14.00">UsersModule</text>
</g>
<!-- DatabaseModule&#45;&gt;UsersModule -->
<g id="edge1" class="edge">
<title>DatabaseModule&#45;&gt;UsersModule</title>
<path fill="none" stroke="black" d="M506,-122.11C506,-141.34 506,-169 506,-169 506,-169 368.74,-169 368.74,-169"/>
<polygon fill="black" stroke="black" points="368.74,-165.5 358.74,-169 368.74,-172.5 368.74,-165.5"/>
</g>
<!-- EmailModule -->
<g id="node2" class="node">
<title>EmailModule</title>
<polygon fill="#8dd3c7" stroke="black" points="432.49,-122 429.49,-126 408.49,-126 405.49,-122 339.51,-122 339.51,-86 432.49,-86 432.49,-122"/>
<text text-anchor="middle" x="386" y="-99.8" font-family="Times,serif" font-size="14.00">EmailModule</text>
</g>
<!-- EmailModule&#45;&gt;UsersModule -->
<g id="edge2" class="edge">
<title>EmailModule&#45;&gt;UsersModule</title>
<path fill="none" stroke="black" d="M349.11,-122.11C349.11,-122.11 349.11,-140.99 349.11,-140.99"/>
<polygon fill="black" stroke="black" points="345.61,-140.99 349.11,-150.99 352.61,-140.99 345.61,-140.99"/>
</g>
<!-- UsersService  -->
<g id="node4" class="node">
<title>UsersService </title>
<polygon fill="#fb8072" stroke="black" points="359.85,-252 266.15,-252 266.15,-216 359.85,-216 359.85,-252"/>
<text text-anchor="middle" x="313" y="-229.8" font-family="Times,serif" font-size="14.00">UsersService </text>
</g>
<!-- UsersModule&#45;&gt;UsersService  -->
<g id="edge3" class="edge">
<title>UsersModule&#45;&gt;UsersService </title>
<path fill="none" stroke="black" stroke-dasharray="5,2" d="M313,-187.11C313,-187.11 313,-205.99 313,-205.99"/>
<polygon fill="black" stroke="black" points="309.5,-205.99 313,-215.99 316.5,-205.99 309.5,-205.99"/>
</g>
<!-- AuditInterceptor -->
<g id="node5" class="node">
<title>AuditInterceptor</title>
<ellipse fill="#fdb462" stroke="black" cx="241" cy="-104" rx="75.28" ry="18"/>
<text text-anchor="middle" x="241" y="-99.8" font-family="Times,serif" font-size="14.00">AuditInterceptor</text>
</g>
<!-- AuditInterceptor&#45;&gt;UsersModule -->
<g id="edge4" class="edge">
<title>AuditInterceptor&#45;&gt;UsersModule</title>
<path fill="none" stroke="black" d="M291.84,-117.47C291.84,-117.47 291.84,-140.86 291.84,-140.86"/>
<polygon fill="black" stroke="black" points="288.34,-140.86 291.84,-150.86 295.34,-140.86 288.34,-140.86"/>
</g>
<!-- UsersService -->
<g id="node6" class="node">
<title>UsersService</title>
<ellipse fill="#fdb462" stroke="black" cx="86" cy="-104" rx="61.95" ry="18"/>
<text text-anchor="middle" x="86" y="-99.8" font-family="Times,serif" font-size="14.00">UsersService</text>
</g>
<!-- UsersService&#45;&gt;UsersModule -->
<g id="edge5" class="edge">
<title>UsersService&#45;&gt;UsersModule</title>
<path fill="none" stroke="black" d="M86,-122.11C86,-141.34 86,-169 86,-169 86,-169 257.06,-169 257.06,-169"/>
<polygon fill="black" stroke="black" points="257.06,-172.5 267.06,-169 257.06,-165.5 257.06,-172.5"/>
</g>
</g>
</svg>
