<?xml version="1.0" encoding="UTF-8" standalone="no"?>
<!DOCTYPE svg PUBLIC "-//W3C//DTD SVG 1.1//EN"
 "http://www.w3.org/Graphics/SVG/1.1/DTD/svg11.dtd">
<!-- Generated by graphviz version 2.47.0 (20210316.0004)
 -->
<!-- Title: dependencies Pages: 1 -->
<svg width="532pt" height="284pt"
 viewBox="0.00 0.00 532.00 284.00" xmlns="http://www.w3.org/2000/svg" xmlns:xlink="http://www.w3.org/1999/xlink">
<g id="graph0" class="graph" transform="scale(1 1) rotate(0) translate(4 280)">
<title>dependencies</title>
<polygon fill="white" stroke="transparent" points="-4,4 -4,-280 528,-280 528,4 -4,4"/>
<text text-anchor="start" x="241.01" y="-42.4" font-family="Times-12" font-weight="bold" font-size="14.00">Legend</text>
<polygon fill="#ffffb3" stroke="transparent" points="28,-10 28,-30 48,-30 48,-10 28,-10"/>
<text text-anchor="start" x="51.63" y="-15.4" font-family="Times-12" font-size="14.00"> &#160;Declarations</text>
<polygon fill="#8dd3c7" stroke="transparent" points="141,-10 141,-30 161,-30 161,-10 141,-10"/>
<text text-anchor="start" x="164.73" y="-15.4" font-family="Times-12" font-size="14.00"> &#160;Module</text>
<polygon fill="#80b1d3" stroke="transparent" points="227,-10 227,-30 247,-30 247,-10 227,-10"/>
<text text-anchor="start" x="250.78" y="-15.4" font-family="Times-12" font-size="14.00"> &#160;Bootstrap</text>
<polygon fill="#fdb462" stroke="transparent" points="324,-10 324,-30 344,-30 344,-10 324,-10"/>
<text text-anchor="start" x="347.67" y="-15.4" font-family="Times-12" font-size="14.00"> &#160;Providers</text>
<polygon fill="#fb8072" stroke="transparent" points="420,-10 420,-30 440,-30 440,-10 420,-10"/>
<text text-anchor="start" x="443.73" y="-15.4" font-family="Times-12" font-size="14.00"> &#160;Exports</text>
<g id="clust1" class="cluster">
<title>cluster_ExampleModule</title>
<polygon fill="none" stroke="black" stroke-dasharray="1,5" points="8,-70 8,-268 516,-268 516,-70 8,-70"/>
</g>
<g id="clust6" class="cluster">
<title>cluster_ExampleModule_providers</title>
<polygon fill="none" stroke="black" points="150,-78 150,-130 508,-130 508,-78 150,-78"/>
</g>
<g id="clust3" class="cluster">
<title>cluster_ExampleModule_imports</title>
<polygon fill="none" stroke="black" points="16,-78 16,-130 142,-130 142,-78 16,-78"/>
</g>
<g id="clust4" class="cluster">
<title>cluster_ExampleModule_exports</title>
<polygon fill="none" stroke="black" points="168,-208 168,-260 296,-260 296,-208 168,-208"/>
</g>
<!-- DatabaseModule -->
<g id="node1" class="node">
<title>DatabaseModule</title>
<polygon fill="#8dd3c7" stroke="black" points="134.35,-122 131.35,-126 110.35,-126 107.35,-122 23.65,-122 23.65,-86 134.35,-86 134.35,-122"/>
<text text-anchor="middle" x="79" y="-99.8" font-family="Times,serif" font-size="14.00">DatabaseModule</text>
</g>
<!-- ExampleModule -->
<g id="node2" class="node">
<title>ExampleModule</title>
<polygon fill="#8dd3c7" stroke="black" points="286.81,-187 283.81,-191 262.81,-191 259.81,-187 177.19,-187 177.19,-151 286.81,-151 286.81,-187"/>
<text text-anchor="middle" x="232" y="-164.8" font-family="Times,serif" font-size="14.00">ExampleModule</text>
</g>
<!-- DatabaseModule&#45;&gt;ExampleModule -->
<g id="edge1" class="edge">
<title>DatabaseModule&#45;&gt;ExampleModule</title>
<path fill="none" stroke="black" d="M79,-122.11C79,-141.34 79,-169 79,-169 79,-169 167.2,-169 167.2,-169"/>
<polygon fill="black" stroke="black" points="167.2,-172.5 177.2,-169 167.2,-165.5 167.2,-172.5"/>
</g>
<!-- ExampleService  -->
<g id="node3" class="node">
<title>ExampleService </title>
<polygon fill="#fb8072" stroke="black" points="287.74,-252 176.26,-252 176.26,-216 287.74,-216 287.74,-252"/>
<text text-anchor="middle" x="232" y="-229.8" font-family="Times,serif" font-size="14.00">ExampleService </text>
</g>
<!-- ExampleModule&#45;&gt;ExampleService  -->
<g id="edge2" class="edge">
<title>ExampleModule&#45;&gt;ExampleService </title>
<path fill="none" stroke="black" stroke-dasharray="5,2" d="M232,-187.11C232,-187.11 232,-205.99 232,-205.99"/>
<polygon fill="black" stroke="black" points="228.5,-205.99 232,-215.99 235.5,-205.99 228.5,-205.99"/>
</g>
<!-- ExampleRepository -->
<g id="node4" class="node">
<title>ExampleRepository</title>
<ellipse fill="#fdb462" stroke="black" cx="412" cy="-104" rx="87.98" ry="18"/>
<text text-anchor="middle" x="412" y="-99.8" font-family="Times,serif" font-size="14.00">ExampleRepository</text>
</g>
<!-- ExampleRepository&#45;&gt;ExampleModule -->
<g id="edge3" class="edge">
<title>ExampleRepository&#45;&gt;ExampleModule</title>
<path fill="none" stroke="black" d="M412,-122.11C412,-141.34 412,-169 412,-169 412,-169 296.98,-169 296.98,-169"/>
<polygon fill="black" stroke="black" points="296.98,-165.5 286.98,-169 296.98,-172.5 296.98,-165.5"/>
</g>
<!-- ExampleService -->
<g id="node5" class="node">
<title>ExampleService</title>
<ellipse fill="#fdb462" stroke="black" cx="232" cy="-104" rx="74.14" ry="18"/>
<text text-anchor="middle" x="232" y="-99.8" font-family="Times,serif" font-size="14.00">ExampleService</text>
</g>
<!-- ExampleService&#45;&gt;ExampleModule -->
<g id="edge4" class="edge">
<title>ExampleService&#45;&gt;ExampleModule</title>
<path fill="none" stroke="black" d="M232,-122.11C232,-122.11 232,-140.99 232,-140.99"/>
<polygon fill="black" stroke="black" points="228.5,-140.99 232,-150.99 235.5,-140.99 228.5,-140.99"/>
</g>
</g>
</svg>
