<?xml version="1.0" encoding="UTF-8" standalone="no"?>
<!DOCTYPE svg PUBLIC "-//W3C//DTD SVG 1.1//EN"
 "http://www.w3.org/Graphics/SVG/1.1/DTD/svg11.dtd">
<!-- Generated by graphviz version 2.47.0 (20210316.0004)
 -->
<!-- Title: dependencies Pages: 1 -->
<svg width="770pt" height="211pt"
 viewBox="0.00 0.00 770.00 211.00" xmlns="http://www.w3.org/2000/svg" xmlns:xlink="http://www.w3.org/1999/xlink">
<g id="graph0" class="graph" transform="scale(1 1) rotate(0) translate(4 207)">
<title>dependencies</title>
<polygon fill="white" stroke="transparent" points="-4,4 -4,-207 766,-207 766,4 -4,4"/>
<text text-anchor="start" x="360.01" y="-42.4" font-family="Times-12" font-weight="bold" font-size="14.00">Legend</text>
<polygon fill="#ffffb3" stroke="transparent" points="147,-10 147,-30 167,-30 167,-10 147,-10"/>
<text text-anchor="start" x="170.63" y="-15.4" font-family="Times-12" font-size="14.00"> &#160;Declarations</text>
<polygon fill="#8dd3c7" stroke="transparent" points="260,-10 260,-30 280,-30 280,-10 260,-10"/>
<text text-anchor="start" x="283.73" y="-15.4" font-family="Times-12" font-size="14.00"> &#160;Module</text>
<polygon fill="#80b1d3" stroke="transparent" points="346,-10 346,-30 366,-30 366,-10 346,-10"/>
<text text-anchor="start" x="369.78" y="-15.4" font-family="Times-12" font-size="14.00"> &#160;Bootstrap</text>
<polygon fill="#fdb462" stroke="transparent" points="443,-10 443,-30 463,-30 463,-10 443,-10"/>
<text text-anchor="start" x="466.67" y="-15.4" font-family="Times-12" font-size="14.00"> &#160;Providers</text>
<polygon fill="#fb8072" stroke="transparent" points="539,-10 539,-30 559,-30 559,-10 539,-10"/>
<text text-anchor="start" x="562.73" y="-15.4" font-family="Times-12" font-size="14.00"> &#160;Exports</text>
<g id="clust1" class="cluster">
<title>cluster_AppModule</title>
<polygon fill="none" stroke="black" stroke-dasharray="1,5" points="8,-70 8,-195 754,-195 754,-70 8,-70"/>
</g>
<g id="clust3" class="cluster">
<title>cluster_AppModule_imports</title>
<polygon fill="none" stroke="black" points="252,-78 252,-130 746,-130 746,-78 252,-78"/>
</g>
<g id="clust6" class="cluster">
<title>cluster_AppModule_providers</title>
<polygon fill="none" stroke="black" points="16,-78 16,-130 244,-130 244,-78 16,-78"/>
</g>
<!-- ApiModule -->
<g id="node1" class="node">
<title>ApiModule</title>
<polygon fill="#8dd3c7" stroke="black" points="738.05,-122 735.05,-126 714.05,-126 711.05,-122 657.95,-122 657.95,-86 738.05,-86 738.05,-122"/>
<text text-anchor="middle" x="698" y="-99.8" font-family="Times,serif" font-size="14.00">ApiModule</text>
</g>
<!-- AppModule -->
<g id="node5" class="node">
<title>AppModule</title>
<polygon fill="#8dd3c7" stroke="black" points="503.66,-187 500.66,-191 479.66,-191 476.66,-187 420.34,-187 420.34,-151 503.66,-151 503.66,-187"/>
<text text-anchor="middle" x="462" y="-164.8" font-family="Times,serif" font-size="14.00">AppModule</text>
</g>
<!-- ApiModule&#45;&gt;AppModule -->
<g id="edge1" class="edge">
<title>ApiModule&#45;&gt;AppModule</title>
<path fill="none" stroke="black" d="M698,-122.28C698,-143.32 698,-175 698,-175 698,-175 513.92,-175 513.92,-175"/>
<polygon fill="black" stroke="black" points="513.92,-171.5 503.92,-175 513.92,-178.5 513.92,-171.5"/>
</g>
<!-- DatabaseModule -->
<g id="node2" class="node">
<title>DatabaseModule</title>
<polygon fill="#8dd3c7" stroke="black" points="639.35,-122 636.35,-126 615.35,-126 612.35,-122 528.65,-122 528.65,-86 639.35,-86 639.35,-122"/>
<text text-anchor="middle" x="584" y="-99.8" font-family="Times,serif" font-size="14.00">DatabaseModule</text>
</g>
<!-- DatabaseModule&#45;&gt;AppModule -->
<g id="edge2" class="edge">
<title>DatabaseModule&#45;&gt;AppModule</title>
<path fill="none" stroke="black" d="M584,-122.02C584,-139.37 584,-163 584,-163 584,-163 513.99,-163 513.99,-163"/>
<polygon fill="black" stroke="black" points="513.99,-159.5 503.99,-163 513.99,-166.5 513.99,-159.5"/>
</g>
<!-- HealthModule -->
<g id="node3" class="node">
<title>HealthModule</title>
<polygon fill="#8dd3c7" stroke="black" points="510.37,-122 507.37,-126 486.37,-126 483.37,-122 413.63,-122 413.63,-86 510.37,-86 510.37,-122"/>
<text text-anchor="middle" x="462" y="-99.8" font-family="Times,serif" font-size="14.00">HealthModule</text>
</g>
<!-- HealthModule&#45;&gt;AppModule -->
<g id="edge3" class="edge">
<title>HealthModule&#45;&gt;AppModule</title>
<path fill="none" stroke="black" d="M462,-122.11C462,-122.11 462,-140.99 462,-140.99"/>
<polygon fill="black" stroke="black" points="458.5,-140.99 462,-150.99 465.5,-140.99 458.5,-140.99"/>
</g>
<!-- ObservabilityModule -->
<g id="node4" class="node">
<title>ObservabilityModule</title>
<polygon fill="#8dd3c7" stroke="black" points="395.75,-122 392.75,-126 371.75,-126 368.75,-122 260.25,-122 260.25,-86 395.75,-86 395.75,-122"/>
<text text-anchor="middle" x="328" y="-99.8" font-family="Times,serif" font-size="14.00">ObservabilityModule</text>
</g>
<!-- ObservabilityModule&#45;&gt;AppModule -->
<g id="edge4" class="edge">
<title>ObservabilityModule&#45;&gt;AppModule</title>
<path fill="none" stroke="black" d="M328,-122.02C328,-139.37 328,-163 328,-163 328,-163 410.34,-163 410.34,-163"/>
<polygon fill="black" stroke="black" points="410.34,-166.5 420.34,-163 410.34,-159.5 410.34,-166.5"/>
</g>
<!-- ObservabilityInterceptor -->
<g id="node6" class="node">
<title>ObservabilityInterceptor</title>
<ellipse fill="#fdb462" stroke="black" cx="130" cy="-104" rx="105.92" ry="18"/>
<text text-anchor="middle" x="130" y="-99.8" font-family="Times,serif" font-size="14.00">ObservabilityInterceptor</text>
</g>
<!-- ObservabilityInterceptor&#45;&gt;AppModule -->
<g id="edge5" class="edge">
<title>ObservabilityInterceptor&#45;&gt;AppModule</title>
<path fill="none" stroke="black" d="M130,-122.28C130,-143.32 130,-175 130,-175 130,-175 410.29,-175 410.29,-175"/>
<polygon fill="black" stroke="black" points="410.29,-178.5 420.29,-175 410.29,-171.5 410.29,-178.5"/>
</g>
</g>
</svg>
