<?xml version="1.0" encoding="UTF-8" standalone="no"?>
<!DOCTYPE svg PUBLIC "-//W3C//DTD SVG 1.1//EN"
 "http://www.w3.org/Graphics/SVG/1.1/DTD/svg11.dtd">
<!-- Generated by graphviz version 2.47.0 (20210316.0004)
 -->
<!-- Title: dependencies Pages: 1 -->
<svg width="1030pt" height="284pt"
 viewBox="0.00 0.00 1030.00 284.00" xmlns="http://www.w3.org/2000/svg" xmlns:xlink="http://www.w3.org/1999/xlink">
<g id="graph0" class="graph" transform="scale(1 1) rotate(0) translate(4 280)">
<title>dependencies</title>
<polygon fill="white" stroke="transparent" points="-4,4 -4,-280 1026,-280 1026,4 -4,4"/>
<text text-anchor="start" x="490.01" y="-42.4" font-family="Times-12" font-weight="bold" font-size="14.00">Legend</text>
<polygon fill="#ffffb3" stroke="transparent" points="277,-10 277,-30 297,-30 297,-10 277,-10"/>
<text text-anchor="start" x="300.63" y="-15.4" font-family="Times-12" font-size="14.00"> &#160;Declarations</text>
<polygon fill="#8dd3c7" stroke="transparent" points="390,-10 390,-30 410,-30 410,-10 390,-10"/>
<text text-anchor="start" x="413.73" y="-15.4" font-family="Times-12" font-size="14.00"> &#160;Module</text>
<polygon fill="#80b1d3" stroke="transparent" points="476,-10 476,-30 496,-30 496,-10 476,-10"/>
<text text-anchor="start" x="499.78" y="-15.4" font-family="Times-12" font-size="14.00"> &#160;Bootstrap</text>
<polygon fill="#fdb462" stroke="transparent" points="573,-10 573,-30 593,-30 593,-10 573,-10"/>
<text text-anchor="start" x="596.67" y="-15.4" font-family="Times-12" font-size="14.00"> &#160;Providers</text>
<polygon fill="#fb8072" stroke="transparent" points="669,-10 669,-30 689,-30 689,-10 669,-10"/>
<text text-anchor="start" x="692.73" y="-15.4" font-family="Times-12" font-size="14.00"> &#160;Exports</text>
<g id="clust1" class="cluster">
<title>cluster_OnboardingModule</title>
<polygon fill="none" stroke="black" stroke-dasharray="1,5" points="8,-70 8,-268 1014,-268 1014,-70 8,-70"/>
</g>
<g id="clust4" class="cluster">
<title>cluster_OnboardingModule_exports</title>
<polygon fill="none" stroke="black" points="369,-208 369,-260 513,-260 513,-208 369,-208"/>
</g>
<g id="clust6" class="cluster">
<title>cluster_OnboardingModule_providers</title>
<polygon fill="none" stroke="black" points="371,-78 371,-130 1006,-130 1006,-78 371,-78"/>
</g>
<g id="clust3" class="cluster">
<title>cluster_OnboardingModule_imports</title>
<polygon fill="none" stroke="black" points="16,-78 16,-130 363,-130 363,-78 16,-78"/>
</g>
<!-- DatabaseModule -->
<g id="node1" class="node">
<title>DatabaseModule</title>
<polygon fill="#8dd3c7" stroke="black" points="355.35,-122 352.35,-126 331.35,-126 328.35,-122 244.65,-122 244.65,-86 355.35,-86 355.35,-122"/>
<text text-anchor="middle" x="300" y="-99.8" font-family="Times,serif" font-size="14.00">DatabaseModule</text>
</g>
<!-- OnboardingModule -->
<g id="node4" class="node">
<title>OnboardingModule</title>
<polygon fill="#8dd3c7" stroke="black" points="504.42,-187 501.42,-191 480.42,-191 477.42,-187 377.58,-187 377.58,-151 504.42,-151 504.42,-187"/>
<text text-anchor="middle" x="441" y="-164.8" font-family="Times,serif" font-size="14.00">OnboardingModule</text>
</g>
<!-- DatabaseModule&#45;&gt;OnboardingModule -->
<g id="edge1" class="edge">
<title>DatabaseModule&#45;&gt;OnboardingModule</title>
<path fill="none" stroke="black" d="M300,-122.03C300,-138.4 300,-160 300,-160 300,-160 367.51,-160 367.51,-160"/>
<polygon fill="black" stroke="black" points="367.51,-163.5 377.51,-160 367.51,-156.5 367.51,-163.5"/>
</g>
<!-- EmailModule -->
<g id="node2" class="node">
<title>EmailModule</title>
<polygon fill="#8dd3c7" stroke="black" points="226.49,-122 223.49,-126 202.49,-126 199.49,-122 133.51,-122 133.51,-86 226.49,-86 226.49,-122"/>
<text text-anchor="middle" x="180" y="-99.8" font-family="Times,serif" font-size="14.00">EmailModule</text>
</g>
<!-- EmailModule&#45;&gt;OnboardingModule -->
<g id="edge2" class="edge">
<title>EmailModule&#45;&gt;OnboardingModule</title>
<path fill="none" stroke="black" d="M180,-122.11C180,-141.34 180,-169 180,-169 180,-169 367.49,-169 367.49,-169"/>
<polygon fill="black" stroke="black" points="367.49,-172.5 377.49,-169 367.49,-165.5 367.49,-172.5"/>
</g>
<!-- UsersModule -->
<g id="node3" class="node">
<title>UsersModule</title>
<polygon fill="#8dd3c7" stroke="black" points="115.92,-122 112.92,-126 91.92,-126 88.92,-122 24.08,-122 24.08,-86 115.92,-86 115.92,-122"/>
<text text-anchor="middle" x="70" y="-99.8" font-family="Times,serif" font-size="14.00">UsersModule</text>
</g>
<!-- UsersModule&#45;&gt;OnboardingModule -->
<g id="edge3" class="edge">
<title>UsersModule&#45;&gt;OnboardingModule</title>
<path fill="none" stroke="black" d="M70,-122.29C70,-144.21 70,-178 70,-178 70,-178 367.64,-178 367.64,-178"/>
<polygon fill="black" stroke="black" points="367.64,-181.5 377.64,-178 367.64,-174.5 367.64,-181.5"/>
</g>
<!-- OnboardingService  -->
<g id="node5" class="node">
<title>OnboardingService </title>
<polygon fill="#fb8072" stroke="black" points="505.35,-252 376.65,-252 376.65,-216 505.35,-216 505.35,-252"/>
<text text-anchor="middle" x="441" y="-229.8" font-family="Times,serif" font-size="14.00">OnboardingService </text>
</g>
<!-- OnboardingModule&#45;&gt;OnboardingService  -->
<g id="edge4" class="edge">
<title>OnboardingModule&#45;&gt;OnboardingService </title>
<path fill="none" stroke="black" stroke-dasharray="5,2" d="M441,-187.11C441,-187.11 441,-205.99 441,-205.99"/>
<polygon fill="black" stroke="black" points="437.5,-205.99 441,-215.99 444.5,-205.99 437.5,-205.99"/>
</g>
<!-- AuditInterceptor -->
<g id="node6" class="node">
<title>AuditInterceptor</title>
<ellipse fill="#fdb462" stroke="black" cx="923" cy="-104" rx="75.28" ry="18"/>
<text text-anchor="middle" x="923" y="-99.8" font-family="Times,serif" font-size="14.00">AuditInterceptor</text>
</g>
<!-- AuditInterceptor&#45;&gt;OnboardingModule -->
<g id="edge5" class="edge">
<title>AuditInterceptor&#45;&gt;OnboardingModule</title>
<path fill="none" stroke="black" d="M923,-122.29C923,-144.21 923,-178 923,-178 923,-178 514.51,-178 514.51,-178"/>
<polygon fill="black" stroke="black" points="514.51,-174.5 504.51,-178 514.51,-181.5 514.51,-174.5"/>
</g>
<!-- AuthService -->
<g id="node7" class="node">
<title>AuthService</title>
<ellipse fill="#fdb462" stroke="black" cx="770" cy="-104" rx="59.11" ry="18"/>
<text text-anchor="middle" x="770" y="-99.8" font-family="Times,serif" font-size="14.00">AuthService</text>
</g>
<!-- AuthService&#45;&gt;OnboardingModule -->
<g id="edge6" class="edge">
<title>AuthService&#45;&gt;OnboardingModule</title>
<path fill="none" stroke="black" d="M770,-122.11C770,-141.34 770,-169 770,-169 770,-169 514.43,-169 514.43,-169"/>
<polygon fill="black" stroke="black" points="514.43,-165.5 504.43,-169 514.43,-172.5 514.43,-165.5"/>
</g>
<!-- OnboardingService -->
<g id="node8" class="node">
<title>OnboardingService</title>
<ellipse fill="#fdb462" stroke="black" cx="607" cy="-104" rx="86.24" ry="18"/>
<text text-anchor="middle" x="607" y="-99.8" font-family="Times,serif" font-size="14.00">OnboardingService</text>
</g>
<!-- OnboardingService&#45;&gt;OnboardingModule -->
<g id="edge7" class="edge">
<title>OnboardingService&#45;&gt;OnboardingModule</title>
<path fill="none" stroke="black" d="M607,-122.03C607,-138.4 607,-160 607,-160 607,-160 514.23,-160 514.23,-160"/>
<polygon fill="black" stroke="black" points="514.23,-156.5 504.23,-160 514.23,-163.5 514.23,-156.5"/>
</g>
<!-- UsersService -->
<g id="node9" class="node">
<title>UsersService</title>
<ellipse fill="#fdb462" stroke="black" cx="441" cy="-104" rx="61.95" ry="18"/>
<text text-anchor="middle" x="441" y="-99.8" font-family="Times,serif" font-size="14.00">UsersService</text>
</g>
<!-- UsersService&#45;&gt;OnboardingModule -->
<g id="edge8" class="edge">
<title>UsersService&#45;&gt;OnboardingModule</title>
<path fill="none" stroke="black" d="M441,-122.11C441,-122.11 441,-140.99 441,-140.99"/>
<polygon fill="black" stroke="black" points="437.5,-140.99 441,-150.99 444.5,-140.99 437.5,-140.99"/>
</g>
</g>
</svg>
