<?xml version="1.0" encoding="UTF-8" standalone="no"?>
<!DOCTYPE svg PUBLIC "-//W3C//DTD SVG 1.1//EN"
 "http://www.w3.org/Graphics/SVG/1.1/DTD/svg11.dtd">
<!-- Generated by graphviz version 2.47.0 (20210316.0004)
 -->
<!-- Title: dependencies Pages: 1 -->
<svg width="504pt" height="284pt"
 viewBox="0.00 0.00 504.00 284.00" xmlns="http://www.w3.org/2000/svg" xmlns:xlink="http://www.w3.org/1999/xlink">
<g id="graph0" class="graph" transform="scale(1 1) rotate(0) translate(4 280)">
<title>dependencies</title>
<polygon fill="white" stroke="transparent" points="-4,4 -4,-280 500,-280 500,4 -4,4"/>
<text text-anchor="start" x="227.01" y="-42.4" font-family="Times-12" font-weight="bold" font-size="14.00">Legend</text>
<polygon fill="#ffffb3" stroke="transparent" points="14,-10 14,-30 34,-30 34,-10 14,-10"/>
<text text-anchor="start" x="37.63" y="-15.4" font-family="Times-12" font-size="14.00"> &#160;Declarations</text>
<polygon fill="#8dd3c7" stroke="transparent" points="127,-10 127,-30 147,-30 147,-10 127,-10"/>
<text text-anchor="start" x="150.73" y="-15.4" font-family="Times-12" font-size="14.00"> &#160;Module</text>
<polygon fill="#80b1d3" stroke="transparent" points="213,-10 213,-30 233,-30 233,-10 213,-10"/>
<text text-anchor="start" x="236.78" y="-15.4" font-family="Times-12" font-size="14.00"> &#160;Bootstrap</text>
<polygon fill="#fdb462" stroke="transparent" points="310,-10 310,-30 330,-30 330,-10 310,-10"/>
<text text-anchor="start" x="333.67" y="-15.4" font-family="Times-12" font-size="14.00"> &#160;Providers</text>
<polygon fill="#fb8072" stroke="transparent" points="406,-10 406,-30 426,-30 426,-10 406,-10"/>
<text text-anchor="start" x="429.73" y="-15.4" font-family="Times-12" font-size="14.00"> &#160;Exports</text>
<g id="clust1" class="cluster">
<title>cluster_RolesModule</title>
<polygon fill="none" stroke="black" stroke-dasharray="1,5" points="19,-70 19,-268 477,-268 477,-70 19,-70"/>
</g>
<g id="clust3" class="cluster">
<title>cluster_RolesModule_imports</title>
<polygon fill="none" stroke="black" points="343,-78 343,-130 469,-130 469,-78 343,-78"/>
</g>
<g id="clust4" class="cluster">
<title>cluster_RolesModule_exports</title>
<polygon fill="none" stroke="black" points="197,-208 197,-260 307,-260 307,-208 197,-208"/>
</g>
<g id="clust6" class="cluster">
<title>cluster_RolesModule_providers</title>
<polygon fill="none" stroke="black" points="27,-78 27,-130 335,-130 335,-78 27,-78"/>
</g>
<!-- DatabaseModule -->
<g id="node1" class="node">
<title>DatabaseModule</title>
<polygon fill="#8dd3c7" stroke="black" points="461.35,-122 458.35,-126 437.35,-126 434.35,-122 350.65,-122 350.65,-86 461.35,-86 461.35,-122"/>
<text text-anchor="middle" x="406" y="-99.8" font-family="Times,serif" font-size="14.00">DatabaseModule</text>
</g>
<!-- RolesModule -->
<g id="node2" class="node">
<title>RolesModule</title>
<polygon fill="#8dd3c7" stroke="black" points="297.94,-187 294.94,-191 273.94,-191 270.94,-187 206.06,-187 206.06,-151 297.94,-151 297.94,-187"/>
<text text-anchor="middle" x="252" y="-164.8" font-family="Times,serif" font-size="14.00">RolesModule</text>
</g>
<!-- DatabaseModule&#45;&gt;RolesModule -->
<g id="edge1" class="edge">
<title>DatabaseModule&#45;&gt;RolesModule</title>
<path fill="none" stroke="black" d="M406,-122.11C406,-141.34 406,-169 406,-169 406,-169 307.79,-169 307.79,-169"/>
<polygon fill="black" stroke="black" points="307.79,-165.5 297.79,-169 307.79,-172.5 307.79,-165.5"/>
</g>
<!-- RolesService  -->
<g id="node3" class="node">
<title>RolesService </title>
<polygon fill="#fb8072" stroke="black" points="298.86,-252 205.14,-252 205.14,-216 298.86,-216 298.86,-252"/>
<text text-anchor="middle" x="252" y="-229.8" font-family="Times,serif" font-size="14.00">RolesService </text>
</g>
<!-- RolesModule&#45;&gt;RolesService  -->
<g id="edge2" class="edge">
<title>RolesModule&#45;&gt;RolesService </title>
<path fill="none" stroke="black" stroke-dasharray="5,2" d="M252,-187.11C252,-187.11 252,-205.99 252,-205.99"/>
<polygon fill="black" stroke="black" points="248.5,-205.99 252,-215.99 255.5,-205.99 248.5,-205.99"/>
</g>
<!-- AuditInterceptor -->
<g id="node4" class="node">
<title>AuditInterceptor</title>
<ellipse fill="#fdb462" stroke="black" cx="252" cy="-104" rx="75.28" ry="18"/>
<text text-anchor="middle" x="252" y="-99.8" font-family="Times,serif" font-size="14.00">AuditInterceptor</text>
</g>
<!-- AuditInterceptor&#45;&gt;RolesModule -->
<g id="edge3" class="edge">
<title>AuditInterceptor&#45;&gt;RolesModule</title>
<path fill="none" stroke="black" d="M252,-122.11C252,-122.11 252,-140.99 252,-140.99"/>
<polygon fill="black" stroke="black" points="248.5,-140.99 252,-150.99 255.5,-140.99 248.5,-140.99"/>
</g>
<!-- RolesService -->
<g id="node5" class="node">
<title>RolesService</title>
<ellipse fill="#fdb462" stroke="black" cx="97" cy="-104" rx="61.97" ry="18"/>
<text text-anchor="middle" x="97" y="-99.8" font-family="Times,serif" font-size="14.00">RolesService</text>
</g>
<!-- RolesService&#45;&gt;RolesModule -->
<g id="edge4" class="edge">
<title>RolesService&#45;&gt;RolesModule</title>
<path fill="none" stroke="black" d="M97,-122.11C97,-141.34 97,-169 97,-169 97,-169 195.91,-169 195.91,-169"/>
<polygon fill="black" stroke="black" points="195.91,-172.5 205.91,-169 195.91,-165.5 195.91,-172.5"/>
</g>
</g>
</svg>
